<svg xmlns="http://www.w3.org/2000/svg" version="1.1" viewBox="47.9 9.5 27 27" width="27pt" height="27pt">
  <g stroke="none" stroke-opacity="1" stroke-dasharray="none" fill="none" fill-opacity="1">
    <title>Canvas 1</title>
    <!-- <rect fill="white" width="27" height="27"/> -->
    <g>
      <title>Layer 1</title>
      <path d="M 70.59238 13.807622 C 75.66922 18.884434 75.66922 27.115566 70.59238 32.19238 C 65.51557 37.269216 57.284435 37.269216 52.20762 32.19238 C 47.130785 27.115566 47.130785 18.884434 52.20762 13.807622 C 57.284435 8.730784 65.51557 8.730784 70.59238 13.807622" stroke="white" stroke-linecap="butt" stroke-linejoin="round" stroke-width="1" stroke-dasharray="4,4"/>
      <path d="M 69.86384 27.67186 C 69.81575 27.52698 69.50982 27.31355 68.94624 27.032076 C 68.79357 26.943354 68.57603 26.82279 68.294535 26.66983 C 68.01279 26.516873 67.757055 26.375925 67.527794 26.247114 C 67.29807 26.118345 67.08285 25.993593 66.88175 25.873028 C 66.84961 25.848882 66.749 25.778556 66.57996 25.661585 C 66.410755 25.544953 66.26806 25.458388 66.15113 25.401933 C 66.03445 25.345816 65.91967 25.317567 65.80696 25.317567 C 65.646 25.317567 65.44495 25.432338 65.20355 25.661585 C 64.96215 25.891128 64.740714 26.140462 64.53958 26.410348 C 64.3384 26.680108 64.12504 26.92944 63.89988 27.158858 C 63.67438 27.388358 63.4891 27.503003 63.34438 27.503003 C 63.27173 27.503003 63.18114 27.482746 63.07258 27.442784 C 62.96406 27.402567 62.881505 27.368102 62.824834 27.340318 C 62.76867 27.311942 62.67229 27.255783 62.53535 27.170994 C 62.39816 27.08646 62.321864 27.040153 62.30579 27.032076 C 61.20305 26.4202 60.25729 25.7199 59.468344 24.931345 C 58.679654 24.142323 57.979226 23.196706 57.36748 22.093902 C 57.35945 22.07779 57.313054 22.00129 57.2286 21.864528 C 57.144016 21.72764 57.08764 21.63118 57.059475 21.574682 C 57.03131 21.518396 56.997096 21.435848 56.95692 21.327209 C 56.91674 21.21857 56.89657 21.128071 56.89657 21.055546 C 56.89657 20.91075 57.011305 20.725526 57.240736 20.500127 C 57.470124 20.274855 57.71973 20.061467 57.98929 19.860384 C 58.25907 19.659302 58.50842 19.437878 58.73789 19.196494 C 58.96728 18.954984 59.08197 18.75386 59.08197 18.592908 C 59.08197 18.480294 59.053805 18.36548 58.997516 18.248805 C 58.941184 18.131877 58.854656 17.989195 58.73789 17.820083 C 58.62108 17.651055 58.550666 17.550535 58.526475 17.518184 C 58.40586 17.317102 58.28123 17.10181 58.15228 16.872394 C 58.023336 16.64302 57.88259 16.387343 57.72958 16.105658 C 57.5767 15.8241 57.45604 15.606694 57.3674 15.453779 C 57.08582 14.890451 56.87255 14.58445 56.727616 14.536326 C 56.67124 14.51218 56.58666 14.5 56.47408 14.5 C 56.25662 14.5 55.97293 14.540174 55.6228 14.620777 C 55.27254 14.701252 54.99693 14.78566 54.795665 14.87434 C 54.39318 15.043283 53.96659 15.534254 53.51576 16.347084 C 53.10524 17.103544 52.9 17.852265 52.9 18.592697 C 52.9 18.80985 52.914084 19.021123 52.94225 19.226562 C 52.970416 19.431789 53.02074 19.663234 53.09327 19.920857 C 53.165675 20.178395 53.22408 20.369709 53.26823 20.49429 C 53.312425 20.618958 53.394936 20.842285 53.51572 21.164355 C 53.636334 21.48634 53.708864 21.683448 53.73301 21.75589 C 54.014714 22.544742 54.34877 23.248975 54.735104 23.8688 C 55.37074 24.899036 56.23818 25.963738 57.336906 27.062482 C 58.435676 28.16114 59.50023 29.02848 60.53062 29.664334 C 61.150396 30.0506 61.854926 30.384594 62.6437 30.66649 C 62.71619 30.69051 62.91331 30.762866 63.23519 30.883897 C 63.55719 31.00459 63.78062 31.087094 63.90529 31.13137 C 64.03001 31.17569 64.22138 31.23413 64.47872 31.306656 C 64.73661 31.37918 64.96786 31.429505 65.1731 31.45788 C 65.37847 31.485664 65.5898 31.5 65.807004 31.5 C 66.54744 31.5 67.29625 31.294646 68.05288 30.884193 C 68.86568 30.433565 69.35655 30.006914 69.52559 29.604157 C 69.61449 29.403117 69.69869 29.127437 69.77917 28.777202 C 69.859905 28.427137 69.9 28.143507 69.9 27.9261 C 69.90025 27.813063 69.88811 27.728697 69.86384 27.67186 Z" fill="white"/>
    </g>
  </g>
</svg>